Coordinates
version=1
nRows=22
nColumns=24
inDegrees=yes

Units are S.I. units (second, meters, Newtons, ...)
Angles are in degrees.

endheader
time	pelvis_tilt	pelvis_list	pelvis_rotation	pelvis_tx	pelvis_ty	pelvis_tz	hip_flexion_r	hip_adduction_r	hip_rotation_r	knee_angle_r	ankle_angle_r	subtalar_angle_r	mtp_angle_r	hip_flexion_l	hip_adduction_l	hip_rotation_l	knee_angle_l	ankle_angle_l	subtalar_angle_l	mtp_angle_l	lumbar_extension	lumbar_bending	lumbar_rotation
      0.85883333	     -2.63738152	     -0.48232926	     -7.10025346	     -0.15251056	      0.88531715	      0.32923865	    -14.89443042	      3.61420186	      5.19262209	    -11.73659671	     16.92452070	      9.06625593	     12.91012497	     32.72590206	     -3.84438828	    -10.94323362	    -21.17250766	      4.65068196	     -1.60823625	     -1.00898565	     -5.50984965	      0.81708381	     13.66814290
      0.86300000	     -2.71836216	     -0.42340826	     -7.27076778	     -0.14643866	      0.88392457	      0.32922156	    -14.86028885	      3.45449724	      5.19931028	    -12.48555564	     17.05710753	      9.36232123	     13.07258210	     32.77607924	     -3.77734561	    -10.92236169	    -21.49771099	      4.70689532	     -1.56861807	     -0.98119740	     -5.36923536	      0.71279543	     13.79200403
      0.86716667	     -2.79763213	     -0.35433672	     -7.42227503	     -0.14034001	      0.88256188	      0.32917919	    -14.80158258	      3.29060222	      5.19711063	    -13.28710320	     17.15490190	      9.62942772	     13.26774090	     32.81681460	     -3.68677461	    -10.89012678	    -21.87538832	      4.74911732	     -1.58653498	     -0.94442288	     -5.22680084	      0.59079238	     13.88057519
      0.87133333	     -2.87159036	     -0.27935469	     -7.55224330	     -0.13421362	      0.88123707	      0.32910071	    -14.71888574	      3.12478840	      5.15904198	    -14.14657285	     17.21187105	      9.89993003	     13.50446727	     32.84675498	     -3.57423342	    -10.83667717	    -22.30432950	      4.77485392	     -1.65441336	     -0.89648011	     -5.08699725	      0.45638871	     13.94442187
      0.87550000	     -2.95025803	     -0.19457500	     -7.65501942	     -0.12806673	      0.87993661	      0.32896901	    -14.59689856	      2.95491063	      5.09174285	    -15.07582576	     17.23286739	     10.18424495	     13.80414849	     32.87826440	     -3.43440202	    -10.76782154	    -22.77073590	      4.77491995	     -1.78322215	     -0.83325673	     -4.93504209	      0.31579901	     13.98602882
      0.87966667	     -2.98962998	     -0.09104405	     -7.72256841	     -0.12186414	      0.87875092	      0.32877491	    -14.50542211	      2.76112255	      4.95822954	    -16.00576386	     17.05151684	     10.42014281	     18.08708380	     32.85136741	     -3.23869602	    -10.64371738	    -23.24177558	      4.69262170	     -2.05738737	      0.12893989	     -4.83152771	      0.14497543	     13.98833296
      0.88383333	     -3.06321671	     -0.00805231	     -7.77841623	     -0.11569044	      0.87752721	      0.32859128	    -14.32983783	      2.60808374	      4.86701918	    -17.05025214	     16.99259911	     10.65497090	     18.16801553	     32.88876327	     -3.08141125	    -10.56297982	    -23.81695949	      4.70687626	     -2.19071657	      0.16730111	     -4.68710566	      0.00537747	     13.97661972
      0.88800000	     -3.12853850	      0.09904648	     -7.81261669	     -0.10949617	      0.87637516	      0.32833100	    -14.11830019	      2.42521284	      4.71463211	    -18.17280886	     16.87313673	     10.93769033	     18.34744782	     32.90290010	     -2.86941054	    -10.43324580	    -24.38420091	      4.68520013	     -2.47643516	      0.22801246	     -4.55258582	     -0.17123657	     13.93347812
      0.89216667	     -3.20163624	      0.21459661	     -7.83113289	     -0.10326585	      0.87527135	      0.32809105	    -13.87948883	      2.24805731	      4.61004381	    -19.32551570	     16.65794455	     11.11828310	     18.51546064	     32.92528906	     -2.64905252	    -10.30997741	    -24.98721619	      4.74747967	     -2.75195467	      0.27912261	     -4.39324995	     -0.38539144	     13.85030633
      0.89633333	     -3.27033236	      0.32762857	     -7.81871482	     -0.09705768	      0.87421936	      0.32775681	    -13.58796310	      2.06737276	      4.40835397	    -20.58155960	     16.40533285	     11.38303878	     18.75211205	     32.95022437	     -2.40876177	    -10.15600752	    -25.60953864	      4.77294522	     -3.09408187	      0.34289272	     -4.23444245	     -0.57163950	     13.74375453
      0.90050000	     -3.25787013	      0.49708774	     -7.78026882	     -0.09081890	      0.87336117	      0.32730702	    -13.33193466	      1.79504298	      4.08520610	    -21.91511537	     16.12862545	     11.83728288	     19.66874990	     32.85979494	     -2.06168686	     -9.94607929	    -26.17201701	      4.72291938	     -3.65759552	      0.56621937	     -4.20892778	     -0.81892056	     13.61373340
      0.90466667	     -3.35092173	      0.60382728	     -7.73101391	     -0.08463079	      0.87240607	      0.32695476	    -12.93919163	      1.63996999	      3.90873931	    -23.28076144	     15.59629532	     11.87278512	     23.84309860	     32.92907302	     -1.83125059	     -9.80674548	    -26.85934328	      4.76933459	     -3.94495789	      1.58391524	     -4.02995652	     -1.00179389	     13.47964654
      0.90883333	     -3.41585659	      0.70741222	     -7.63431870	     -0.07844747	      0.87151830	      0.32650855	    -12.53571948	      1.48074339	      3.63889400	    -24.72967548	     15.15275600	     12.10180287	     23.91978490	     32.98876716	     -1.57858843	     -9.63641844	    -27.59907976	      4.94242947	     -4.21654298	      1.61839705	     -3.89677476	     -1.17866092	     13.29410649
      0.91300000	     -3.46978474	      0.84303111	     -7.53767450	     -0.07227298	      0.87073811	      0.32602984	    -12.08593312	      1.27334008	      3.34292171	    -26.26297054	     14.62959428	     12.35789819	     24.06721182	     33.01442341	     -1.28321805	     -9.45368234	    -28.29321811	      5.10181454	     -4.56822494	      1.65880268	     -3.77440579	     -1.39788547	     13.08804196
      0.91716667	     -3.47282343	      1.01826918	     -7.43031292	     -0.06609270	      0.87012101	      0.32548236	    -11.64161556	      0.99808848	      2.99131172	    -27.86268515	     14.04605194	     12.69993809	     24.54625589	     32.95755178	     -0.91781023	     -9.23306677	    -28.92698942	      5.28065354	     -5.04120605	      1.75563436	     -3.72384051	     -1.67343037	     12.84918120
      0.92133333	     -3.50761948	      1.16978311	     -7.30719956	     -0.05996517	      0.86950425	      0.32493773	    -11.11610322	      0.75529596	      2.64679596	    -29.53381592	     13.38360915	     12.97802511	     25.20301523	     32.95653025	     -0.59548377	     -9.04394562	    -29.61594472	      5.53188800	     -5.38880069	      1.87055609	     -3.63537647	     -1.90887998	     12.59401976
      0.92550000	     -3.55052844	      1.30413739	     -7.15912240	     -0.05385376	      0.86892478	      0.32440075	    -10.55307787	      0.53550457	      2.29484978	    -31.24021159	     12.63142889	     13.17979052	     25.60763586	     32.98746151	     -0.30884525	     -8.91072944	    -30.36596852	      5.83578930	     -5.61349297	      1.93835383	     -3.53052750	     -2.15147721	     12.37233286
      0.92966667	     -3.57518651	      1.46183587	     -7.00376151	     -0.04777325	      0.86847177	      0.32380848	     -9.95618942	      0.27149486	      1.91242942	    -33.01505626	     11.79781519	     13.38782994	     25.85068519	     32.95776219	      0.02045949	     -8.73376722	    -31.02169424	      6.15178935	     -5.76301145	      1.97952274	     -3.45800621	     -2.38005384	     12.14395082
      0.93383333	     -3.53583989	      1.65682526	     -6.85678229	     -0.04171311	      0.86818738	      0.32316748	     -9.38127965	     -0.06948060	      1.50226609	    -34.84268657	     10.95557015	     13.71518274	     26.50494392	     32.82664893	      0.41271961	     -8.52808319	    -31.61085782	      6.51477141	     -6.15178849	      2.05927847	     -3.47711998	     -2.67381531	     11.82623654
      0.93800000	     -3.54445866	      1.82294142	     -6.68048248	     -0.03568832	      0.86787944	      0.32256678	     -8.72809264	     -0.36443253	      1.08989107	    -36.69665241	     10.00411860	     13.87164807	     26.72026364	     32.76986836	      0.73224212	     -8.42180668	    -32.25564985	      6.89351888	     -6.16683803	      2.09360103	     -3.42334054	     -2.94166115	     11.61569157
      0.94216667	     -3.51272895	      2.01644293	     -6.51175682	     -0.02970435	      0.86770368	      0.32193063	     -8.07313020	     -0.71846458	      0.66616646	    -38.59833351	      9.05129318	     14.11556495	     26.96238233	     32.63144753	      1.09853037	     -8.28375992	    -32.81737736	      7.30405503	     -6.31416910	      2.12625445	     -3.43539138	     -3.24572744	     11.33296629
      0.94633333	     -3.41754158	      2.25370143	     -6.35649098	     -0.02373484	      0.86773307	      0.32128458	     -7.45571861	     -1.14792498	      0.24405919	    -40.50567688	      7.98013766	     14.26572024	     28.76531531	     32.37294785	      1.51916178	     -8.16288472	    -33.26312458	      7.65687257	     -6.56707572	      2.27510468	     -3.52836372	     -3.60132621	     11.00939960
